{"glyphs":{"0":{"ha":772,"x_min":0,"x_max":0,"o":"m 386 1000 b 719 492 668 1000 719 710 b 386 -17 719 274 668 -17 b 53 492 104 -17 53 274 b 386 1000 53 710 104 1000 m 386 908 b 153 492 172 908 153 647 b 386 75 153 336 172 75 b 619 492 600 75 619 336 b 386 908 619 647 600 908 "},"1":{"ha":772,"x_min":0,"x_max":0,"o":"m 483 0 l 383 0 l 383 858 l 207 703 l 144 778 l 394 983 l 483 983 "},"2":{"ha":772,"x_min":0,"x_max":0,"o":"m 692 0 l 67 0 l 67 115 l 458 514 b 583 736 518 575 583 646 b 393 908 583 844 499 908 b 197 754 294 908 218 849 l 92 765 b 386 1000 119 911 235 1000 b 683 744 544 1000 683 914 b 485 399 683 594 583 496 l 175 92 l 692 92 "},"3":{"ha":772,"x_min":0,"x_max":0,"o":"m 283 561 l 335 561 b 550 742 451 561 550 611 b 368 908 550 847 482 908 b 181 800 286 908 221 869 l 93 844 b 365 1000 151 950 246 1000 b 650 744 519 1000 650 908 b 483 519 650 638 574 549 l 488 517 b 676 267 600 493 676 390 b 363 -17 676 85 533 -17 b 53 182 218 -17 107 43 l 158 214 b 371 75 192 121 253 75 b 576 269 483 75 576 154 b 326 469 576 418 456 469 l 283 469 "},"4":{"ha":772,"x_min":0,"x_max":0,"o":"m 578 325 l 719 325 l 719 233 l 578 233 l 578 0 l 478 0 l 478 233 l 53 233 l 53 347 l 450 983 l 578 983 m 478 883 l 475 883 l 136 325 l 478 325 "},"5":{"ha":772,"x_min":0,"x_max":0,"o":"m 646 892 l 243 892 l 238 596 b 369 619 279 613 325 619 b 681 304 554 619 681 485 b 350 -17 681 114 539 -17 b 67 158 226 -17 119 44 l 165 201 b 358 75 203 125 272 75 b 581 294 483 75 581 172 b 339 528 581 433 479 528 b 135 474 268 528 197 507 l 144 983 l 646 983 "},"6":{"ha":772,"x_min":0,"x_max":0,"o":"m 267 561 l 269 558 b 406 592 301 581 361 592 b 706 288 576 592 706 464 b 386 -17 706 107 571 -17 b 67 288 201 -17 67 107 b 151 551 67 396 103 472 l 417 983 l 535 983 m 167 288 b 386 75 167 163 257 75 b 606 288 515 75 606 163 b 386 500 606 413 515 500 b 167 288 257 500 167 413 "},"7":{"ha":772,"x_min":0,"x_max":0,"o":"m 658 892 l 263 0 l 150 0 l 554 892 l 75 892 l 75 983 l 658 983 "},"8":{"ha":772,"x_min":0,"x_max":0,"o":"m 258 524 b 111 743 172 553 111 643 b 386 1000 111 900 239 1000 b 661 743 533 1000 661 900 b 514 524 661 643 600 553 l 514 521 b 697 263 624 492 697 392 b 386 -17 697 92 551 -17 b 75 263 221 -17 75 92 b 258 521 75 392 149 492 m 561 735 b 386 908 561 836 485 908 b 211 735 288 908 211 836 b 386 561 211 633 288 561 b 561 735 485 561 561 633 m 597 276 b 386 478 597 392 514 478 b 175 276 258 478 175 392 b 386 75 175 161 258 75 b 597 276 514 75 597 161 "},"9":{"ha":772,"x_min":0,"x_max":0,"o":"m 506 422 l 503 425 b 367 392 471 403 411 392 b 67 696 196 392 67 519 b 386 1000 67 876 201 1000 b 706 696 571 1000 706 876 b 621 432 706 588 669 511 l 356 0 l 238 0 m 606 696 b 386 908 606 821 515 908 b 167 696 257 908 167 821 b 386 483 167 571 257 483 b 606 696 515 483 606 571 "}," ":{"ha":386,"x_min":0,"x_max":0,"o":""},"!":{"ha":386,"x_min":0,"x_max":0,"o":"m 243 267 l 143 267 l 143 983 l 243 983 m 268 67 b 193 -8 268 28 238 -8 b 118 67 149 -8 118 28 b 193 142 118 106 149 142 b 268 67 238 142 268 106 "},"\"":{"ha":721,"x_min":0,"x_max":0,"o":"m 218 983 l 301 983 l 301 657 l 218 657 m 419 983 l 503 983 l 503 657 l 419 657 "},"#":{"ha":772,"x_min":0,"x_max":0,"o":"m 190 297 l 49 297 l 49 381 l 201 381 l 232 606 l 82 606 l 82 689 l 244 689 l 285 983 l 369 983 l 329 689 l 514 689 l 554 983 l 639 983 l 599 689 l 724 689 l 724 606 l 586 606 l 556 381 l 688 381 l 688 297 l 544 297 l 503 0 l 418 0 l 460 297 l 275 297 l 233 0 l 149 0 m 286 381 l 471 381 l 501 606 l 317 606 "},"$":{"ha":772,"x_min":0,"x_max":0,"o":"m 353 913 b 185 735 254 906 185 831 b 353 563 185 640 261 596 m 419 69 b 601 247 492 69 600 110 b 419 436 603 342 525 403 m 353 456 b 85 732 226 494 85 563 b 353 1003 85 893 217 993 l 353 1100 l 419 1100 l 419 1006 b 676 888 551 1006 624 949 l 599 821 b 419 914 560 886 486 915 l 419 543 b 701 247 556 494 701 428 b 419 -22 701 93 579 -12 l 419 -117 l 353 -117 l 353 -25 b 60 128 224 -18 115 49 l 143 188 b 353 68 204 111 294 67 "},"%":{"ha":1157,"x_min":0,"x_max":0,"o":"m 542 757 b 297 514 542 621 435 514 b 53 757 160 514 53 621 b 297 1000 53 893 160 1000 b 542 757 435 1000 542 893 m 458 757 b 297 917 458 849 385 917 b 136 757 210 917 136 849 b 297 597 136 665 210 597 b 458 757 385 597 458 665 m 1104 226 b 860 -17 1104 90 997 -17 b 615 226 722 -17 615 90 b 860 469 615 363 722 469 b 1104 226 997 469 1104 363 m 1021 226 b 860 386 1021 318 947 386 b 699 226 772 386 699 318 b 860 67 699 135 772 67 b 1021 226 947 67 1021 135 m 301 -43 l 229 -6 l 856 1026 l 926 989 "},"&":{"ha":978,"x_min":0,"x_max":0,"o":"m 735 228 l 956 0 l 814 0 l 675 144 b 375 -25 594 39 508 -25 b 67 256 211 -25 67 79 b 290 546 67 400 172 490 b 175 776 232 608 175 686 b 421 1008 175 924 282 1008 b 658 788 551 1008 658 931 b 442 532 658 658 543 585 l 668 299 l 803 532 l 915 532 m 558 788 b 422 917 558 865 497 917 b 275 772 340 917 275 861 b 378 596 275 706 346 624 b 558 788 453 639 558 686 m 353 483 b 175 254 224 411 175 356 b 376 67 175 143 269 67 b 613 211 483 67 549 131 "},"’":{"ha":361,"x_min":0,"x_max":0,"o":"m 171 657 l 78 657 l 171 983 l 283 983 "},"(":{"ha":361,"x_min":0,"x_max":0,"o":"m 350 975 b 167 400 232 785 167 629 b 344 -167 167 171 229 25 l 271 -222 b 75 400 147 -50 75 175 b 276 1022 75 614 144 842 "},")":{"ha":361,"x_min":0,"x_max":0,"o":"m 11 -175 b 194 400 129 15 194 171 b 17 967 194 629 132 775 l 90 1022 b 286 400 214 850 286 625 b 85 -222 286 186 217 -42 "},"*":{"ha":617,"x_min":0,"x_max":0,"o":"m 350 785 l 544 847 l 574 769 l 378 707 l 503 539 l 436 489 l 308 661 l 181 489 l 114 539 l 239 707 l 43 769 l 72 847 l 267 785 l 267 983 l 350 983 "},"+":{"ha":925,"x_min":0,"x_max":0,"o":"m 504 463 l 817 463 l 817 379 l 504 379 l 504 67 l 421 67 l 421 379 l 108 379 l 108 463 l 421 463 l 421 775 l 504 775 "},",":{"ha":386,"x_min":0,"x_max":0,"o":"m 183 -194 l 90 -194 l 183 132 l 296 132 "},"-":{"ha":463,"x_min":0,"x_max":0,"o":"m 410 288 l 53 288 l 53 379 l 410 379 "},".":{"ha":386,"x_min":0,"x_max":0,"o":"m 268 67 b 193 -8 268 28 238 -8 b 118 67 149 -8 118 28 b 193 142 118 106 149 142 b 268 67 238 142 268 106 "},"/":{"ha":514,"x_min":0,"x_max":0,"o":"m 88 -25 l 7 1 l 428 1008 l 507 981 "},":":{"ha":386,"x_min":0,"x_max":0,"o":"m 268 582 b 193 507 268 543 238 507 b 118 582 149 507 118 543 b 193 657 118 621 149 657 b 268 582 238 657 268 621 m 268 67 b 193 -8 268 28 238 -8 b 118 67 149 -8 118 28 b 193 142 118 106 149 142 b 268 67 238 142 268 106 "},";":{"ha":386,"x_min":0,"x_max":0,"o":"m 183 -194 l 90 -194 l 183 132 l 296 132 m 281 582 b 206 507 281 543 250 507 b 131 582 161 507 131 543 b 206 657 131 621 161 657 b 281 582 250 657 281 621 "},"<":{"ha":925,"x_min":0,"x_max":0,"o":"m 817 700 l 221 421 l 817 142 l 817 58 l 108 389 l 108 453 l 817 783 "},"=":{"ha":925,"x_min":0,"x_max":0,"o":"m 817 567 l 817 483 l 108 483 l 108 567 m 817 358 l 817 275 l 108 275 l 108 358 "},">":{"ha":925,"x_min":0,"x_max":0,"o":"m 108 783 l 817 453 l 817 389 l 108 58 l 108 142 l 704 421 l 108 700 "},"?":{"ha":669,"x_min":0,"x_max":0,"o":"m 383 267 l 283 267 l 283 382 b 508 749 286 535 508 585 b 346 908 508 843 442 908 b 169 757 253 908 186 847 l 65 769 b 344 1000 86 915 201 1000 b 608 757 493 1000 608 914 b 383 338 608 521 383 540 m 417 67 b 342 -8 417 28 386 -8 b 267 67 297 -8 267 28 b 342 142 267 106 297 142 b 417 67 386 142 417 106 "},"@":{"ha":1111,"x_min":0,"x_max":0,"o":"m 699 568 b 586 707 699 647 644 707 b 353 407 451 701 353 536 b 483 274 353 329 408 274 b 699 568 604 274 699 454 m 778 764 l 856 764 l 739 372 b 726 301 732 349 726 322 b 758 274 726 288 739 274 b 968 576 854 274 968 422 b 579 933 968 786 774 933 b 143 492 340 933 143 722 b 579 50 143 261 340 50 b 931 218 717 50 856 113 l 1018 218 b 579 -25 929 65 760 -25 b 60 492 296 -25 60 201 b 579 1008 60 782 296 1008 b 1051 582 836 1008 1051 832 b 732 190 1051 342 857 190 b 635 272 676 190 642 215 l 632 272 b 458 190 589 228 540 190 b 261 399 340 190 261 275 b 586 790 261 590 390 790 b 744 676 654 790 715 761 l 747 676 "},"A":{"ha":953,"x_min":0,"x_max":0,"o":"m 117 0 l 0 0 l 428 983 l 525 983 l 953 0 l 836 0 l 728 258 l 225 258 m 263 350 l 689 350 l 476 867 "},"B":{"ha":875,"x_min":0,"x_max":0,"o":"m 133 983 l 426 983 b 743 736 589 983 743 922 b 569 521 743 629 679 546 l 569 518 b 792 272 707 507 792 415 b 433 0 792 208 750 0 l 133 0 m 233 553 l 435 553 b 635 725 531 553 635 599 b 425 892 635 765 614 892 l 233 892 m 233 92 l 425 92 b 683 278 569 92 683 149 b 438 469 683 407 597 469 l 233 469 "},"C":{"ha":978,"x_min":0,"x_max":0,"o":"m 943 156 b 579 -25 878 54 742 -25 b 67 492 286 -25 67 193 b 579 1008 67 790 286 1008 b 919 853 701 1008 833 963 l 832 788 b 579 917 793 851 683 917 b 175 492 326 917 175 718 b 579 67 175 265 326 67 b 861 214 682 67 788 100 "},"D":{"ha":1029,"x_min":0,"x_max":0,"o":"m 119 983 l 446 983 b 963 492 692 983 963 819 b 446 0 963 164 692 0 l 119 0 m 219 92 l 414 92 b 854 492 714 92 854 289 b 414 892 854 694 714 892 l 219 892 "},"E":{"ha":824,"x_min":0,"x_max":0,"o":"m 233 92 l 760 92 l 760 0 l 133 0 l 133 983 l 743 983 l 743 892 l 233 892 l 233 557 l 710 557 l 710 465 l 233 465 "},"F":{"ha":772,"x_min":0,"x_max":0,"o":"m 233 0 l 133 0 l 133 983 l 726 983 l 726 892 l 233 892 l 233 557 l 692 557 l 692 465 l 233 465 "},"G":{"ha":1081,"x_min":0,"x_max":0,"o":"m 860 803 b 579 917 793 874 700 917 b 175 492 326 917 175 718 b 579 67 175 265 326 67 b 851 136 681 67 778 94 l 851 465 l 617 465 l 617 557 l 951 557 l 951 75 b 579 -25 842 10 699 -25 b 67 492 286 -25 67 193 b 579 1008 67 790 286 1008 b 935 876 735 1008 847 964 "},"H":{"ha":1003,"x_min":0,"x_max":0,"o":"m 133 983 l 233 983 l 233 557 l 769 557 l 769 983 l 869 983 l 869 0 l 769 0 l 769 465 l 233 465 l 233 0 l 133 0 "},"I":{"ha":367,"x_min":0,"x_max":0,"o":"m 233 0 l 133 0 l 133 983 l 233 983 "},"J":{"ha":669,"x_min":0,"x_max":0,"o":"m 121 201 b 276 67 139 119 189 67 b 450 311 422 67 450 190 l 450 983 l 550 983 l 550 269 b 274 -25 550 138 485 -25 b 19 181 139 -25 42 46 "},"K":{"ha":875,"x_min":0,"x_max":0,"o":"m 233 557 l 247 557 l 710 983 l 853 983 l 357 538 l 881 0 l 733 0 l 250 507 l 233 507 l 233 0 l 133 0 l 133 983 l 233 983 "},"L":{"ha":694,"x_min":0,"x_max":0,"o":"m 233 92 l 692 92 l 692 0 l 133 0 l 133 983 l 233 983 "},"M":{"ha":1236,"x_min":0,"x_max":0,"o":"m 618 183 l 950 983 l 1103 983 l 1103 0 l 1003 0 l 1003 850 l 1000 850 l 644 0 l 592 0 l 236 850 l 233 850 l 233 0 l 133 0 l 133 983 l 286 983 "},"N":{"ha":1081,"x_min":0,"x_max":0,"o":"m 844 150 l 847 150 l 847 983 l 947 983 l 947 0 l 822 0 l 236 842 l 233 842 l 233 0 l 133 0 l 133 983 l 258 983 "},"O":{"ha":1158,"x_min":0,"x_max":0,"o":"m 1092 492 b 579 -25 1092 193 872 -25 b 67 492 286 -25 67 193 b 579 1008 67 790 286 1008 b 1092 492 872 1008 1092 790 m 983 492 b 579 917 983 718 832 917 b 175 492 326 917 175 718 b 579 67 175 265 326 67 b 983 492 832 67 983 265 "},"P":{"ha":797,"x_min":0,"x_max":0,"o":"m 133 983 l 419 983 b 743 721 619 983 743 897 b 419 457 743 544 619 457 l 233 457 l 233 0 l 133 0 m 233 549 l 394 549 b 635 721 574 549 635 626 b 394 892 635 815 574 892 l 233 892 "},"Q":{"ha":1158,"x_min":0,"x_max":0,"o":"m 175 504 b 564 92 175 286 321 92 b 951 504 806 92 951 286 b 564 917 951 722 806 917 b 175 504 321 917 175 722 m 1126 0 l 564 0 b 67 504 279 0 67 213 b 564 1008 67 796 279 1008 b 1060 504 847 1008 1060 796 b 829 94 1060 328 989 179 l 829 92 l 1126 92 "},"R":{"ha":824,"x_min":0,"x_max":0,"o":"m 233 0 l 133 0 l 133 983 l 436 983 b 760 721 636 983 760 897 b 508 467 760 585 669 481 l 792 0 l 669 0 l 400 457 l 233 457 m 233 549 l 411 549 b 651 721 590 549 651 626 b 411 892 651 815 590 892 l 233 892 "},"S":{"ha":772,"x_min":0,"x_max":0,"o":"m 599 821 b 408 917 556 885 492 917 b 199 739 306 917 199 863 b 703 260 199 474 703 614 b 379 -25 703 81 535 -25 b 69 121 260 -25 144 18 l 160 186 b 383 67 201 114 281 67 b 594 246 482 67 594 131 b 90 729 594 524 90 369 b 408 1008 90 919 249 1008 b 686 889 519 1008 608 978 "},"T":{"ha":797,"x_min":0,"x_max":0,"o":"m 449 0 l 349 0 l 349 892 l 19 892 l 19 983 l 778 983 l 778 892 l 449 892 "},"U":{"ha":953,"x_min":0,"x_max":0,"o":"m 836 367 b 476 -25 836 203 771 -25 b 117 367 182 -25 117 203 l 117 983 l 217 983 l 217 378 b 476 67 217 94 401 67 b 736 378 551 67 736 94 l 736 983 l 836 983 "},"V":{"ha":849,"x_min":0,"x_max":0,"o":"m 419 150 l 422 150 l 744 983 l 853 983 l 469 0 l 369 0 l -4 983 l 107 983 "},"W":{"ha":1311,"x_min":0,"x_max":0,"o":"m 347 142 l 350 142 l 597 983 l 717 983 l 964 142 l 967 142 l 1200 983 l 1311 983 l 1021 0 l 904 0 l 657 842 l 654 842 l 407 0 l 290 0 l 0 983 l 111 983 "},"X":{"ha":875,"x_min":0,"x_max":0,"o":"m 439 590 l 714 983 l 839 983 l 506 517 l 867 0 l 735 0 l 435 446 l 133 0 l 8 0 l 368 517 l 36 983 l 171 983 "},"Y":{"ha":797,"x_min":0,"x_max":0,"o":"m 449 0 l 349 0 l 349 424 l -19 983 l 106 983 l 399 519 l 692 983 l 817 983 l 449 424 "},"Z":{"ha":772,"x_min":0,"x_max":0,"o":"m 732 900 l 158 92 l 740 92 l 740 0 l 32 0 l 32 83 l 607 892 l 40 892 l 40 983 l 732 983 "},"[":{"ha":361,"x_min":0,"x_max":0,"o":"m 315 942 l 182 942 l 182 -142 l 315 -142 l 315 -217 l 90 -217 l 90 1017 l 315 1017 "},"\\":{"ha":514,"x_min":0,"x_max":0,"o":"m 7 981 l 86 1008 l 507 1 l 426 -25 "},"]":{"ha":361,"x_min":0,"x_max":0,"o":"m 46 -142 l 179 -142 l 179 942 l 46 942 l 46 1017 l 271 1017 l 271 -217 l 46 -217 "},"^":{"ha":925,"x_min":0,"x_max":0,"o":"m 429 983 l 496 983 l 814 382 l 728 382 l 463 883 l 197 382 l 111 382 "},"_":{"ha":694,"x_min":0,"x_max":0,"o":"m 0 -104 l 694 -104 l 694 -174 l 0 -174 "},"‘":{"ha":361,"x_min":0,"x_max":0,"o":"m 190 983 l 283 983 l 190 657 l 78 657 "},"a":{"ha":721,"x_min":0,"x_max":0,"o":"m 517 399 l 517 415 b 350 583 517 528 463 583 b 151 507 274 583 207 557 l 96 572 b 371 667 156 633 249 667 b 608 436 499 667 608 594 l 608 146 b 619 0 608 96 614 35 l 531 0 b 522 106 525 32 522 71 l 519 106 b 290 -17 467 19 394 -17 b 67 174 175 -17 67 47 b 471 399 67 385 315 399 m 469 324 b 167 186 376 324 167 317 b 319 67 167 100 246 67 b 517 276 453 67 517 161 l 517 324 "},"b":{"ha":849,"x_min":0,"x_max":0,"o":"m 100 1050 l 192 1050 l 192 542 l 194 542 b 447 667 254 629 361 667 b 793 325 650 667 793 521 b 447 -17 793 129 650 -17 b 194 108 361 -17 254 21 l 192 108 l 192 0 l 100 0 m 693 325 b 447 583 693 471 599 583 b 188 325 297 583 188 471 b 447 67 188 179 297 67 b 693 325 599 67 693 179 "},"c":{"ha":669,"x_min":0,"x_max":0,"o":"m 574 497 b 411 583 543 544 483 583 b 167 325 260 586 167 474 b 411 67 167 176 260 64 b 574 153 483 67 543 106 l 649 96 b 411 -17 585 21 499 -15 b 67 325 199 -19 67 129 b 411 667 67 521 199 669 b 649 554 499 665 585 629 "},"d":{"ha":849,"x_min":0,"x_max":0,"o":"m 749 0 l 657 0 l 657 108 l 654 108 b 401 -17 594 21 488 -17 b 56 325 199 -17 56 129 b 401 667 56 521 199 667 b 654 542 488 667 594 629 l 657 542 l 657 1050 l 749 1050 m 156 325 b 401 67 156 179 250 67 b 661 325 551 67 661 179 b 401 583 661 471 551 583 b 156 325 250 583 156 471 "},"e":{"ha":772,"x_min":0,"x_max":0,"o":"m 164 300 b 403 67 175 169 274 67 b 611 179 500 67 575 121 l 682 121 b 403 -17 606 24 510 -17 b 67 325 210 -17 67 129 b 394 667 67 521 210 667 b 706 342 592 665 706 519 l 706 300 m 606 375 b 394 583 606 499 526 583 b 167 375 275 583 167 482 "},"f":{"ha":411,"x_min":0,"x_max":0,"o":"m 403 567 l 249 567 l 249 0 l 157 0 l 157 567 l 19 567 l 19 650 l 157 650 l 157 828 b 375 1067 157 1000 243 1067 b 454 1057 401 1067 428 1063 l 438 974 b 367 983 415 979 390 983 b 249 817 265 983 249 911 l 249 650 l 403 650 "},"g":{"ha":849,"x_min":0,"x_max":0,"o":"m 150 -131 b 399 -250 204 -203 294 -250 b 651 6 585 -250 651 -135 l 651 122 l 649 122 b 406 0 590 35 500 0 b 67 331 218 0 67 140 b 397 667 67 519 206 667 b 649 542 475 667 574 643 l 651 542 l 651 650 l 743 650 l 743 6 b 394 -333 743 -136 686 -333 b 82 -203 265 -333 165 -292 m 167 333 b 408 83 167 197 272 83 b 654 333 542 83 660 183 b 408 583 654 469 561 583 b 167 333 272 583 167 469 "},"h":{"ha":772,"x_min":0,"x_max":0,"o":"m 100 1050 l 192 1050 l 192 546 l 194 546 b 413 667 235 617 326 667 b 657 413 578 667 657 574 l 657 0 l 565 0 l 565 360 b 389 583 565 504 525 583 b 192 333 369 583 192 571 l 192 0 l 100 0 "},"i":{"ha":333,"x_min":0,"x_max":0,"o":"m 213 0 l 121 0 l 121 650 l 213 650 m 233 900 b 167 833 233 861 200 833 b 100 900 133 833 100 861 b 167 967 100 939 133 967 b 233 900 200 967 233 939 "},"j":{"ha":333,"x_min":0,"x_max":0,"o":"m -31 -240 l -26 -242 b 22 -250 -11 -246 7 -250 b 121 -114 113 -250 121 -175 l 121 650 l 213 650 l 213 -129 b 29 -333 213 -167 224 -333 b -43 -319 4 -333 -19 -329 m 233 900 b 167 833 233 861 200 833 b 100 900 133 833 100 861 b 167 967 100 939 133 967 b 233 900 200 967 233 939 "},"k":{"ha":669,"x_min":0,"x_max":0,"o":"m 192 357 l 499 650 l 636 650 l 313 353 l 671 0 l 529 0 l 192 342 l 192 0 l 100 0 l 100 1050 l 192 1050 "},"l":{"ha":333,"x_min":0,"x_max":0,"o":"m 213 0 l 121 0 l 121 1050 l 213 1050 "},"m":{"ha":1183,"x_min":0,"x_max":0,"o":"m 100 506 b 93 650 100 554 96 601 l 192 650 l 192 551 l 194 551 b 404 667 239 626 326 667 b 611 532 475 667 568 643 b 825 667 649 615 738 667 b 1069 413 990 667 1069 574 l 1069 0 l 978 0 l 978 379 b 814 583 978 511 940 583 b 631 346 678 583 631 467 l 631 0 l 539 0 l 539 379 b 375 583 539 511 501 583 b 192 333 353 583 192 571 l 192 0 l 100 0 "},"n":{"ha":772,"x_min":0,"x_max":0,"o":"m 188 650 b 192 546 192 615 192 581 l 194 546 b 413 667 235 617 326 667 b 657 413 578 667 657 574 l 657 0 l 565 0 l 565 360 b 389 583 565 504 525 583 b 192 333 369 583 192 571 l 192 0 l 100 0 l 100 507 b 93 650 100 542 96 603 "},"o":{"ha":824,"x_min":0,"x_max":0,"o":"m 757 325 b 411 -17 757 129 614 -17 b 67 325 210 -17 67 129 b 411 667 67 521 210 667 b 757 325 614 667 757 521 m 657 325 b 411 583 657 471 563 583 b 167 325 261 583 167 471 b 411 67 167 179 261 67 b 657 325 563 67 657 179 "},"p":{"ha":849,"x_min":0,"x_max":0,"o":"m 100 650 l 192 650 l 192 542 l 194 542 b 447 667 254 629 361 667 b 793 325 650 667 793 521 b 447 -17 793 129 650 -17 b 194 108 361 -17 254 21 l 192 108 l 192 -400 l 100 -400 m 693 325 b 447 583 693 471 599 583 b 188 325 297 583 188 471 b 447 67 188 179 297 67 b 693 325 599 67 693 179 "},"q":{"ha":849,"x_min":0,"x_max":0,"o":"m 749 -400 l 657 -400 l 657 108 l 654 108 b 401 -17 594 21 488 -17 b 56 325 199 -17 56 129 b 401 667 56 521 199 667 b 654 542 488 667 594 629 l 657 542 l 657 650 l 749 650 m 156 325 b 401 67 156 179 250 67 b 661 325 551 67 661 179 b 401 583 661 471 551 583 b 156 325 250 583 156 471 "},"r":{"ha":461,"x_min":0,"x_max":0,"o":"m 110 447 b 104 650 110 506 107 556 l 194 650 l 194 529 l 197 529 b 406 667 224 599 292 667 b 474 658 432 667 454 664 l 456 568 b 403 575 444 572 428 575 b 201 367 264 575 201 454 l 201 0 l 110 0 "},"s":{"ha":592,"x_min":0,"x_max":0,"o":"m 444 496 b 304 583 417 549 371 583 b 169 486 240 583 169 556 b 297 383 169 425 213 403 l 390 361 b 549 183 481 340 549 275 b 296 -17 549 42 422 -17 b 46 110 197 -17 107 18 l 125 164 b 296 67 163 106 219 67 b 449 175 371 67 449 100 b 325 279 449 240 393 263 l 236 300 b 69 471 192 311 69 347 b 310 667 69 606 188 667 b 526 550 400 667 485 635 "},"t":{"ha":461,"x_min":0,"x_max":0,"o":"m 436 567 l 249 567 l 249 183 b 343 67 249 86 286 67 b 438 92 375 67 410 76 l 442 7 b 318 -17 408 -8 364 -17 b 157 157 249 -17 157 14 l 157 567 l 19 567 l 19 650 l 157 650 l 157 833 l 249 833 l 249 650 l 436 650 "},"u":{"ha":772,"x_min":0,"x_max":0,"o":"m 569 0 b 565 104 565 35 565 69 l 563 104 b 344 -17 522 33 431 -17 b 100 238 179 -17 100 76 l 100 650 l 192 650 l 192 290 b 368 67 192 146 232 67 b 565 317 388 67 565 79 l 565 650 l 657 650 l 657 143 b 664 0 657 108 661 47 "},"v":{"ha":669,"x_min":0,"x_max":0,"o":"m 386 0 l 283 0 l 19 650 l 129 650 l 336 103 l 339 103 l 546 650 l 650 650 "},"w":{"ha":1003,"x_min":0,"x_max":0,"o":"m 128 650 l 278 122 l 281 122 l 454 650 l 549 650 l 722 122 l 725 122 l 875 650 l 983 650 l 778 0 l 675 0 l 503 533 l 500 533 l 328 0 l 225 0 l 19 650 "},"x":{"ha":669,"x_min":0,"x_max":0,"o":"m 268 347 l 32 650 l 157 650 l 338 407 l 510 650 l 624 650 l 397 347 l 669 0 l 544 0 l 326 285 l 117 0 l 0 0 "},"y":{"ha":669,"x_min":0,"x_max":0,"o":"m 342 113 l 540 650 l 651 650 l 326 -169 b 122 -333 288 -269 235 -333 b 38 -324 94 -333 65 -332 l 47 -235 b 117 -250 68 -246 92 -250 b 242 -133 181 -250 214 -207 l 289 -8 l 22 650 l 138 650 "},"z":{"ha":592,"x_min":0,"x_max":0,"o":"m 546 583 l 165 83 l 560 83 l 560 0 l 32 0 l 32 67 l 413 567 l 51 567 l 51 650 l 546 650 "},"{":{"ha":361,"x_min":0,"x_max":0,"o":"m 17 442 b 140 596 79 442 140 499 l 140 843 b 290 1017 140 974 211 1017 l 379 1017 l 379 933 l 301 933 b 232 818 233 933 232 871 l 232 579 b 108 401 232 444 140 406 l 108 399 b 232 221 140 394 232 356 l 232 -18 b 301 -133 232 -71 233 -133 l 379 -133 l 379 -217 l 290 -217 b 140 -43 211 -217 140 -174 l 140 204 b 17 358 140 301 79 358 "},"|":{"ha":308,"x_min":0,"x_max":0,"o":"m 196 1042 l 196 -347 l 113 -347 l 113 1042 "},"}":{"ha":361,"x_min":0,"x_max":0,"o":"m 344 358 b 221 204 282 358 221 301 l 221 -43 b 71 -217 221 -174 150 -217 l -18 -217 l -18 -133 l 60 -133 b 129 -18 128 -133 129 -71 l 129 221 b 253 399 129 356 221 394 l 253 401 b 129 579 221 406 129 444 l 129 818 b 60 933 129 871 128 933 l -18 933 l -18 1017 l 71 1017 b 221 843 150 1017 221 974 l 221 596 b 344 442 221 499 282 442 "},"~":{"ha":925,"x_min":0,"x_max":0,"o":"m 801 456 b 613 326 760 397 703 326 b 468 367 554 326 536 329 b 319 432 422 392 371 432 b 182 331 256 432 207 368 l 124 386 b 313 515 165 444 222 515 b 457 475 371 515 389 513 b 606 410 503 450 554 410 b 743 511 669 410 718 474 "},"¡":{"ha":386,"x_min":0,"x_max":0,"o":"m 143 400 l 243 400 l 243 -317 l 143 -317 m 118 600 b 193 675 118 639 149 675 b 268 600 238 675 268 639 b 193 525 268 561 238 525 b 118 600 149 525 118 561 "},"¢":{"ha":772,"x_min":0,"x_max":0,"o":"m 400 579 b 208 325 281 558 208 456 b 400 71 208 194 281 92 m 467 68 b 615 153 533 72 588 108 l 690 96 b 467 -15 631 25 550 -11 l 467 -100 l 400 -100 l 400 -12 b 108 325 218 7 108 146 b 400 663 108 504 218 643 l 400 750 l 467 750 l 467 665 b 690 554 550 661 631 625 l 615 497 b 467 582 588 542 533 578 "},"£":{"ha":772,"x_min":0,"x_max":0,"o":"m 592 465 l 358 465 l 358 83 l 710 83 l 710 0 l 117 0 l 117 83 l 258 83 l 258 465 l 125 465 l 125 549 l 258 549 l 258 669 b 553 1000 258 846 324 1000 b 768 917 633 1000 713 975 l 703 846 b 549 917 665 888 613 917 b 358 661 378 917 358 756 l 358 549 l 592 549 "},"⁄":{"ha":233,"x_min":0,"x_max":0,"o":"m -232 0 l 394 1028 l 465 985 l -160 -44 "},"¥":{"ha":772,"x_min":0,"x_max":0,"o":"m 336 310 l 336 417 l 326 433 l 110 433 l 110 508 l 282 508 l -3 983 l 115 983 l 386 511 l 657 983 l 775 983 l 492 508 l 663 508 l 663 433 l 446 433 l 436 417 l 436 310 l 663 310 l 663 235 l 436 235 l 436 0 l 336 0 l 336 235 l 110 235 l 110 310 "},"ƒ":{"ha":772,"x_min":0,"x_max":0,"o":"m 588 507 l 422 507 l 329 18 b 114 -193 310 -82 264 -193 b 0 -160 74 -193 32 -183 l 44 -93 b 117 -110 65 -104 93 -110 b 236 38 203 -110 224 -33 l 324 507 l 174 507 l 174 582 l 339 582 l 376 782 b 588 1000 397 896 449 1000 b 719 960 635 1000 681 986 l 672 893 b 593 917 649 907 621 917 b 468 756 501 917 478 814 l 438 582 l 588 582 "},"§":{"ha":772,"x_min":0,"x_max":0,"o":"m 547 828 b 397 917 529 864 483 917 b 247 792 269 917 247 822 b 360 660 247 724 297 692 l 513 582 b 647 389 590 542 647 485 b 526 207 647 304 599 246 b 622 33 596 158 622 113 b 361 -193 622 -122 496 -193 b 86 -33 238 -193 131 -142 l 178 11 b 361 -110 208 -75 285 -110 b 522 32 435 -110 522 -76 b 425 154 522 89 483 125 l 235 247 b 110 428 163 282 110 340 b 254 614 110 519 172 578 b 147 781 217 639 147 681 b 390 1000 147 924 261 1000 b 629 869 514 1000 601 942 m 313 551 b 210 435 260 529 210 493 b 354 296 210 356 296 324 l 446 251 b 547 375 494 271 547 319 b 415 525 547 456 479 496 l 336 561 "},"¤":{"ha":772,"x_min":0,"x_max":0,"o":"m 656 703 b 729 492 704 642 731 569 b 656 281 731 414 704 342 l 729 207 l 668 146 l 594 219 b 386 146 533 172 460 146 b 178 219 313 146 239 172 l 104 146 l 43 207 l 117 281 b 43 492 68 342 42 414 b 117 703 42 569 68 642 l 43 776 l 104 838 l 178 764 b 386 838 239 811 313 838 b 594 764 460 838 533 811 l 668 838 l 729 776 m 135 492 b 388 229 135 347 247 229 b 638 492 526 229 638 347 b 388 754 638 636 526 754 b 135 492 247 754 135 636 "},"'":{"ha":361,"x_min":0,"x_max":0,"o":"m 139 983 l 222 983 l 222 657 l 139 657 "},"“":{"ha":721,"x_min":0,"x_max":0,"o":"m 244 983 l 338 983 l 244 657 l 132 657 m 496 983 l 589 983 l 496 657 l 383 657 "},"«":{"ha":669,"x_min":0,"x_max":0,"o":"m 172 333 l 332 89 l 267 43 l 72 333 l 267 624 l 332 578 m 425 333 l 585 89 l 519 43 l 325 333 l 519 624 l 585 578 "},"‹":{"ha":438,"x_min":0,"x_max":0,"o":"m 342 89 l 276 43 l 82 333 l 276 624 l 342 578 l 182 333 "},"›":{"ha":438,"x_min":0,"x_max":0,"o":"m 96 578 l 161 624 l 356 333 l 161 43 l 96 89 l 256 333 "},"ﬁ":{"ha":746,"x_min":0,"x_max":0,"o":"m 403 567 l 249 567 l 249 0 l 157 0 l 157 567 l 19 567 l 19 650 l 157 650 l 157 828 b 375 1067 157 1000 243 1067 b 454 1057 401 1067 428 1063 l 438 974 b 367 983 415 979 390 983 b 249 817 265 983 249 911 l 249 650 l 403 650 m 625 0 l 533 0 l 533 650 l 625 650 m 646 900 b 579 833 646 861 613 833 b 513 900 546 833 513 861 b 579 967 513 939 546 967 b 646 900 613 967 646 939 "},"ﬂ":{"ha":746,"x_min":0,"x_max":0,"o":"m 403 567 l 249 567 l 249 0 l 157 0 l 157 567 l 19 567 l 19 650 l 157 650 l 157 828 b 375 1067 157 1000 243 1067 b 454 1057 401 1067 428 1063 l 438 974 b 367 983 415 979 390 983 b 249 817 265 983 249 911 l 249 650 l 403 650 m 625 0 l 533 0 l 533 1050 l 625 1050 "},"–":{"ha":694,"x_min":0,"x_max":0,"o":"m 694 288 l 0 288 l 0 379 l 694 379 "},"†":{"ha":772,"x_min":0,"x_max":0,"o":"m 432 700 l 715 700 l 715 617 l 432 617 l 432 -175 l 340 -175 l 340 617 l 57 617 l 57 700 l 340 700 l 340 983 l 432 983 "},"‡":{"ha":772,"x_min":0,"x_max":0,"o":"m 432 717 l 703 717 l 703 633 l 432 633 l 432 175 l 703 175 l 703 92 l 432 92 l 432 -175 l 340 -175 l 340 92 l 69 92 l 69 175 l 340 175 l 340 633 l 69 633 l 69 717 l 340 717 l 340 983 l 432 983 "},"·":{"ha":386,"x_min":0,"x_max":0,"o":"m 268 436 b 193 361 268 397 238 361 b 118 436 149 361 118 397 b 193 511 118 475 149 511 b 268 436 238 511 268 475 "},"¶":{"ha":833,"x_min":0,"x_max":0,"o":"m 713 -175 l 621 -175 l 621 908 l 449 908 l 449 -175 l 357 -175 l 357 439 b 67 697 188 439 67 553 b 383 983 67 878 189 983 l 713 983 "},"•":{"ha":694,"x_min":0,"x_max":0,"o":"m 101 492 b 347 738 101 628 211 738 b 593 492 483 738 593 628 b 347 246 593 356 483 246 b 101 492 211 246 101 356 "},"‚":{"ha":361,"x_min":0,"x_max":0,"o":"m 171 -194 l 78 -194 l 171 132 l 283 132 "},"„":{"ha":721,"x_min":0,"x_max":0,"o":"m 476 -194 l 383 -194 l 476 132 l 589 132 m 225 -194 l 132 -194 l 225 132 l 338 132 "},"”":{"ha":721,"x_min":0,"x_max":0,"o":"m 476 657 l 383 657 l 476 983 l 589 983 m 225 657 l 132 657 l 225 983 l 338 983 "},"»":{"ha":669,"x_min":0,"x_max":0,"o":"m 497 333 l 338 578 l 403 624 l 597 333 l 403 43 l 338 89 m 244 333 l 85 578 l 150 624 l 344 333 l 150 43 l 85 89 "},"…":{"ha":1389,"x_min":0,"x_max":0,"o":"m 307 67 b 232 -8 307 28 276 -8 b 157 67 188 -8 157 28 b 232 142 157 106 188 142 b 307 67 276 142 307 106 m 769 67 b 694 -8 769 28 739 -8 b 619 67 650 -8 619 28 b 694 142 619 106 650 142 b 769 67 739 142 769 106 m 1232 67 b 1157 -8 1232 28 1201 -8 b 1082 67 1113 -8 1082 28 b 1157 142 1082 106 1113 142 b 1232 67 1201 142 1232 106 "},"‰":{"ha":1389,"x_min":0,"x_max":0,"o":"m 460 786 b 247 572 460 669 365 572 b 35 786 129 572 35 669 b 247 1000 35 903 129 1000 b 460 786 365 1000 460 903 m 385 786 b 247 925 385 863 324 925 b 110 786 171 925 110 863 b 247 647 110 710 171 647 b 385 786 324 647 385 710 m 868 197 b 656 -17 868 81 774 -17 b 443 197 538 -17 443 81 b 656 411 443 314 538 411 b 868 197 774 411 868 314 m 793 197 b 656 336 793 274 732 336 b 518 197 579 336 518 274 b 656 58 518 121 579 58 b 793 197 732 58 793 121 m 1354 197 b 1142 -17 1354 81 1260 -17 b 929 197 1024 -17 929 81 b 1142 411 929 314 1024 411 b 1354 197 1260 411 1354 314 m 1279 197 b 1142 336 1279 274 1218 336 b 1004 197 1065 336 1004 274 b 1142 58 1004 121 1065 58 b 1279 197 1218 58 1279 121 m 174 -43 l 101 -6 l 728 1026 l 799 989 "},"¿":{"ha":669,"x_min":0,"x_max":0,"o":"m 286 400 l 386 400 l 386 285 b 161 -82 383 132 161 82 b 324 -242 161 -176 228 -242 b 500 -90 417 -242 483 -181 l 604 -103 b 325 -333 583 -249 468 -333 b 61 -90 176 -333 61 -247 b 286 329 61 146 286 126 m 253 600 b 328 675 253 639 283 675 b 403 600 372 675 403 639 b 328 525 403 561 372 525 b 253 600 283 525 253 561 "},"`":{"ha":333,"x_min":0,"x_max":0,"o":"m -14 983 l 113 983 l 251 783 l 169 783 "},"´":{"ha":333,"x_min":0,"x_max":0,"o":"m 164 783 l 82 783 l 221 983 l 347 983 "},"ˆ":{"ha":333,"x_min":0,"x_max":0,"o":"m 374 783 l 282 783 l 167 933 l 51 783 l -40 783 l 111 983 l 222 983 "},"˜":{"ha":333,"x_min":0,"x_max":0,"o":"m -58 800 b 69 944 -46 872 -14 944 b 171 913 103 944 138 929 b 264 881 204 897 236 881 b 332 950 306 881 324 915 l 392 950 b 264 806 379 878 347 806 b 163 838 231 806 196 822 b 69 869 131 854 99 869 b 1 800 28 869 10 835 "},"¯":{"ha":333,"x_min":0,"x_max":0,"o":"m 354 833 l -21 833 l -21 908 l 354 908 "},"˘":{"ha":333,"x_min":0,"x_max":0,"o":"m 371 983 b 167 800 364 868 281 800 b -37 983 53 800 -31 868 l 24 983 b 167 875 36 911 97 875 b 310 983 236 875 297 911 "},"˙":{"ha":333,"x_min":0,"x_max":0,"o":"m 96 913 b 167 983 96 949 125 983 b 238 913 208 983 238 949 b 167 842 238 876 208 842 b 96 913 125 842 96 876 "},"¨":{"ha":333,"x_min":0,"x_max":0,"o":"m -37 899 b 33 969 -37 935 -8 969 b 104 899 75 969 104 935 b 33 828 104 863 75 828 b -37 899 -8 828 -37 863 m 229 899 b 300 969 229 935 258 969 b 371 899 342 969 371 935 b 300 828 371 863 342 828 b 229 899 258 828 229 863 "},"˚":{"ha":333,"x_min":0,"x_max":0,"o":"m 300 903 b 167 771 300 828 239 771 b 33 903 94 771 33 828 b 167 1035 33 978 94 1035 b 300 903 239 1035 300 978 m 250 903 b 167 985 250 949 213 985 b 83 903 121 985 83 949 b 167 821 83 857 121 821 b 250 903 213 821 250 857 "},"¸":{"ha":333,"x_min":0,"x_max":0,"o":"m 154 -83 l 157 -85 b 207 -75 172 -79 186 -75 b 314 -179 263 -75 314 -112 b 154 -301 314 -265 229 -301 b 19 -268 108 -301 61 -290 l 42 -218 b 144 -243 74 -235 110 -243 b 231 -181 185 -243 231 -226 b 163 -125 231 -164 219 -125 b 99 -140 136 -125 117 -132 l 74 -117 l 160 0 l 217 0 "},"˝":{"ha":333,"x_min":0,"x_max":0,"o":"m -24 783 l -106 783 l 35 983 l 161 983 m 256 783 l 174 783 l 313 983 l 439 983 "},"˛":{"ha":333,"x_min":0,"x_max":0,"o":"m 292 -251 b 167 -301 260 -282 213 -301 b 42 -183 101 -301 42 -254 b 165 8 42 -106 108 -37 l 232 8 b 125 -160 164 -60 125 -106 b 194 -226 125 -199 157 -226 b 265 -196 219 -226 247 -215 "},"ˇ":{"ha":333,"x_min":0,"x_max":0,"o":"m 222 783 l 111 783 l -40 983 l 51 983 l 167 833 l 282 983 l 374 983 "},"—":{"ha":1389,"x_min":0,"x_max":0,"o":"m 1389 288 l 0 288 l 0 379 l 1389 379 "},"Æ":{"ha":1311,"x_min":0,"x_max":0,"o":"m 810 557 l 1193 557 l 1193 465 l 810 465 l 810 92 l 1235 92 l 1235 0 l 710 0 l 710 275 l 296 275 l 118 0 l 0 0 l 640 983 l 1218 983 l 1218 892 l 810 892 m 710 367 l 710 892 l 694 892 l 354 367 "},"ª":{"ha":468,"x_min":0,"x_max":0,"o":"m 189 589 b 43 704 114 589 43 626 b 286 843 43 790 103 843 l 317 843 l 317 854 b 228 933 317 906 285 933 b 104 892 178 933 138 918 l 60 943 b 225 1000 108 989 165 1000 b 400 875 364 1000 400 921 l 400 685 b 407 597 400 654 404 621 l 332 597 l 328 647 l 326 647 b 189 589 301 611 254 589 m 299 776 b 126 708 251 776 126 776 b 208 656 126 672 168 656 b 317 776 306 656 317 728 "},"Ł":{"ha":694,"x_min":0,"x_max":0,"o":"m 233 503 l 533 761 l 533 664 l 233 406 l 233 92 l 692 92 l 692 0 l 133 0 l 133 319 l 19 222 l 19 319 l 133 417 l 133 983 l 233 983 "},"Ø":{"ha":1158,"x_min":0,"x_max":0,"o":"m 958 847 b 1092 492 1043 757 1092 633 b 579 -25 1092 193 872 -25 b 251 88 451 -25 338 17 l 146 -25 l 94 22 l 200 136 b 67 492 115 226 67 350 b 579 1008 67 790 286 1008 b 907 896 706 1008 818 968 l 1013 1008 l 1064 961 m 318 160 b 579 67 385 101 472 67 b 983 492 832 67 983 265 b 889 772 983 596 950 696 m 840 824 b 579 917 774 882 686 917 b 175 492 326 917 175 718 b 269 211 175 386 208 286 "},"Œ":{"ha":1311,"x_min":0,"x_max":0,"o":"m 822 557 l 1214 557 l 1214 465 l 822 465 l 822 92 l 1247 92 l 1247 0 l 626 0 b 88 493 232 0 88 281 b 624 983 88 824 360 983 l 1231 983 l 1231 892 l 822 892 m 722 892 l 643 892 b 196 489 388 892 196 753 b 624 92 196 372 263 92 l 722 92 "},"º":{"ha":535,"x_min":0,"x_max":0,"o":"m 492 793 b 267 589 492 676 399 589 b 43 793 136 589 43 676 b 267 1000 43 913 136 1000 b 492 793 399 1000 492 913 m 408 793 b 267 933 408 869 350 933 b 126 793 185 933 126 869 b 267 656 126 718 185 656 b 408 793 350 656 408 718 "},"æ":{"ha":1183,"x_min":0,"x_max":0,"o":"m 629 300 l 629 288 b 819 67 629 169 700 67 b 1022 172 931 67 982 117 l 1094 115 b 822 -17 1024 25 924 -17 b 579 135 725 -17 626 31 b 290 -17 514 25 426 -17 b 67 174 175 -17 67 47 b 383 375 67 347 238 375 l 538 375 l 538 415 b 371 583 535 553 419 583 b 174 506 294 583 228 557 l 117 572 b 375 667 179 631 269 667 b 590 542 475 667 560 613 b 822 667 632 618 729 667 b 1117 342 1014 665 1117 525 l 1117 300 m 347 300 b 167 186 269 300 167 274 b 319 67 167 100 246 67 b 538 288 451 67 538 158 l 538 300 m 1025 375 b 825 583 1025 496 947 583 b 629 375 715 583 629 494 "},"ı":{"ha":333,"x_min":0,"x_max":0,"o":"m 213 0 l 121 0 l 121 650 l 213 650 "},"ł":{"ha":333,"x_min":0,"x_max":0,"o":"m 213 636 l 325 753 l 325 651 l 213 536 l 213 0 l 121 0 l 121 440 l 8 325 l 8 426 l 121 540 l 121 1050 l 213 1050 "},"ø":{"ha":824,"x_min":0,"x_max":0,"o":"m 256 119 b 411 67 296 86 349 67 b 657 325 563 67 657 179 b 610 483 657 385 640 439 m 568 529 b 411 583 528 564 474 583 b 167 325 261 583 167 471 b 214 167 167 264 183 208 m 676 551 b 757 325 726 494 757 415 b 411 -17 757 129 614 -17 b 193 56 324 -17 249 11 l 100 -39 l 56 4 l 147 99 b 67 325 96 158 67 236 b 411 667 67 521 210 667 b 632 594 497 667 572 640 l 724 689 l 768 646 "},"œ":{"ha":1281,"x_min":0,"x_max":0,"o":"m 726 300 l 726 288 b 917 67 726 169 797 67 b 1119 172 1028 67 1079 117 l 1192 115 b 919 -17 1121 25 1021 -17 b 667 131 814 -17 718 31 b 396 -17 594 25 478 -17 b 67 325 197 -17 67 129 b 396 667 67 521 210 667 b 671 521 501 667 610 625 b 919 667 732 614 804 667 b 1214 342 1111 665 1214 525 l 1214 300 m 626 325 b 396 583 626 464 546 583 b 167 325 261 583 167 471 b 396 67 167 179 261 67 b 626 325 546 67 626 186 m 1122 375 b 922 583 1122 496 1044 583 b 726 375 813 583 726 494 "},"ß":{"ha":824,"x_min":0,"x_max":0,"o":"m 208 0 l 117 0 l 117 756 b 410 1067 117 919 186 1067 b 675 821 558 1067 675 976 b 514 600 675 711 622 639 l 514 597 b 751 310 678 583 751 453 b 422 -17 751 113 618 -17 b 342 -6 396 -17 368 -14 l 342 74 b 408 67 364 68 386 67 b 651 311 556 67 651 157 b 372 554 651 481 544 554 l 372 638 b 575 808 485 638 575 683 b 404 983 575 919 499 983 b 208 764 256 983 208 861 "},"¹":{"ha":501,"x_min":0,"x_max":0,"o":"m 313 401 l 229 401 l 229 908 l 115 815 l 75 868 l 238 992 l 313 992 "},"¬":{"ha":925,"x_min":0,"x_max":0,"o":"m 817 181 l 733 181 l 733 483 l 108 483 l 108 567 l 817 567 "},"µ":{"ha":772,"x_min":0,"x_max":0,"o":"m 100 650 l 192 650 l 192 290 b 368 67 192 131 235 67 b 565 317 479 67 565 157 l 565 650 l 657 650 l 657 143 b 664 0 657 96 661 47 l 565 0 l 565 106 l 563 106 b 344 -17 522 40 431 -17 b 192 24 281 -17 229 -3 l 192 -317 l 100 -317 "},"™":{"ha":1389,"x_min":0,"x_max":0,"o":"m 557 908 l 372 908 l 372 411 l 289 411 l 289 908 l 100 908 l 100 983 l 557 983 m 1289 411 l 1206 411 l 1206 892 l 1203 892 l 1010 411 l 956 411 l 763 892 l 760 892 l 760 411 l 676 411 l 676 983 l 806 983 l 985 544 l 1164 983 l 1289 983 "},"Ð":{"ha":1029,"x_min":0,"x_max":0,"o":"m 119 482 l 18 482 l 18 557 l 119 557 l 119 983 l 446 983 b 963 492 692 983 963 819 b 446 0 963 164 692 0 l 119 0 m 219 92 l 414 92 b 854 492 714 92 854 289 b 414 892 854 694 714 892 l 219 892 l 219 557 l 578 557 l 578 482 l 219 482 "},"½":{"ha":1158,"x_min":0,"x_max":0,"o":"m 178 0 l 804 1028 l 875 985 l 250 -44 m 292 401 l 208 401 l 208 908 l 94 815 l 54 868 l 217 992 l 292 992 m 1104 0 l 697 0 l 697 79 l 935 307 b 1015 440 972 343 1015 386 b 910 524 1015 486 960 524 b 788 446 849 524 801 489 l 710 458 b 906 599 728 549 807 599 b 1099 446 1008 599 1099 547 b 969 238 1099 356 1033 296 l 789 75 l 1104 75 "},"±":{"ha":925,"x_min":0,"x_max":0,"o":"m 108 565 l 421 565 l 421 782 l 504 782 l 504 565 l 817 565 l 817 482 l 504 482 l 504 272 l 421 272 l 421 482 l 108 482 m 108 150 l 817 150 l 817 67 l 108 67 "},"Þ":{"ha":797,"x_min":0,"x_max":0,"o":"m 133 983 l 233 983 l 233 767 l 456 767 b 743 504 619 767 743 681 b 456 240 743 326 619 240 l 233 240 l 233 0 l 133 0 m 233 332 l 394 332 b 635 504 500 332 635 344 b 394 675 635 663 500 675 l 233 675 "},"¼":{"ha":1158,"x_min":0,"x_max":0,"o":"m 986 206 l 1069 206 l 1069 131 l 986 131 l 986 0 l 903 0 l 903 131 l 636 131 l 636 217 l 885 590 l 986 590 m 213 0 l 839 1028 l 910 985 l 285 -44 m 903 507 l 900 507 l 711 206 l 903 206 m 326 401 l 243 401 l 243 908 l 129 815 l 89 868 l 251 992 l 326 992 "},"÷":{"ha":925,"x_min":0,"x_max":0,"o":"m 817 379 l 108 379 l 108 463 l 817 463 m 538 646 b 463 571 538 607 507 571 b 388 646 418 571 388 607 b 463 721 388 685 418 721 b 538 646 507 721 538 685 m 538 196 b 463 121 538 157 507 121 b 388 196 418 121 388 157 b 463 271 388 235 418 271 b 538 196 507 271 538 235 "},"¦":{"ha":308,"x_min":0,"x_max":0,"o":"m 196 938 l 196 451 l 113 451 l 113 938 m 196 243 l 196 -243 l 113 -243 l 113 243 "},"°":{"ha":556,"x_min":0,"x_max":0,"o":"m 485 793 b 278 586 485 674 397 586 b 71 793 158 586 71 674 b 278 1000 71 913 158 1000 b 485 793 397 1000 485 913 m 418 793 b 278 933 418 871 356 933 b 138 793 200 933 138 871 b 278 653 138 715 200 653 b 418 793 356 653 418 715 "},"þ":{"ha":849,"x_min":0,"x_max":0,"o":"m 100 1050 l 192 1050 l 192 529 l 194 529 b 447 667 276 642 374 667 b 793 325 650 667 793 521 b 447 -17 793 129 650 -17 b 194 108 361 -17 254 21 l 192 108 l 192 -317 l 100 -317 m 693 325 b 447 583 693 471 599 583 b 188 325 297 583 188 471 b 447 67 188 179 289 67 b 693 325 599 67 693 179 "},"¾":{"ha":1158,"x_min":0,"x_max":0,"o":"m 1014 206 l 1097 206 l 1097 131 l 1014 131 l 1014 0 l 931 0 l 931 131 l 664 131 l 664 217 l 913 590 l 1014 590 m 268 0 l 894 1028 l 965 985 l 340 -44 m 931 507 l 928 507 l 739 206 l 931 206 m 193 746 l 226 746 b 365 844 301 746 365 776 b 265 925 365 889 322 925 b 146 861 213 925 182 911 l 81 907 b 264 1000 128 976 186 1000 b 449 847 364 1000 449 944 b 335 710 449 782 399 729 l 335 707 b 467 563 419 693 467 635 b 263 393 467 454 374 393 b 61 513 168 393 96 429 l 132 554 b 268 468 154 499 190 468 b 383 564 322 468 383 517 b 233 671 383 607 357 671 l 193 671 "},"²":{"ha":501,"x_min":0,"x_max":0,"o":"m 454 401 l 47 401 l 47 481 l 285 708 b 365 842 322 744 365 788 b 260 925 365 888 310 925 b 138 847 199 925 151 890 l 60 860 b 256 1000 78 950 157 1000 b 449 847 358 1000 449 949 b 319 639 449 757 383 697 l 139 476 l 454 476 "},"®":{"ha":1111,"x_min":0,"x_max":0,"o":"m 363 788 l 582 788 b 793 615 725 788 793 735 b 635 453 793 508 724 463 l 807 189 l 717 189 l 553 446 l 446 446 l 446 189 l 363 189 m 446 521 l 549 521 b 710 619 632 521 710 525 b 575 713 710 703 639 713 l 446 713 m 35 489 b 556 1008 35 786 272 1008 b 1076 494 839 1008 1076 786 b 556 -25 1076 197 839 -25 b 35 489 272 -25 35 197 m 118 489 b 556 50 118 242 313 50 b 993 494 799 50 993 242 b 556 933 993 743 799 933 b 118 489 313 933 118 743 "},"−":{"ha":925,"x_min":0,"x_max":0,"o":"m 817 379 l 108 379 l 108 463 l 817 463 "},"ð":{"ha":824,"x_min":0,"x_max":0,"o":"m 167 325 b 411 67 167 179 261 67 b 657 325 563 67 657 179 b 411 583 657 471 563 583 b 167 325 261 583 167 471 m 489 917 b 757 353 658 747 760 572 b 411 -17 756 186 679 -17 b 67 325 210 -17 67 129 b 411 667 67 521 210 667 b 619 586 492 667 553 642 l 622 589 b 401 872 550 725 486 797 l 249 793 l 199 843 l 349 921 b 217 1031 301 965 257 1003 l 300 1082 b 435 967 347 1043 393 1006 l 576 1040 l 632 992 "},"×":{"ha":925,"x_min":0,"x_max":0,"o":"m 463 481 l 682 701 l 742 643 l 521 421 l 742 200 l 682 140 l 463 361 l 242 140 l 183 200 l 404 421 l 183 643 l 242 701 "},"³":{"ha":501,"x_min":0,"x_max":0,"o":"m 181 746 l 214 746 b 353 839 289 746 353 776 b 253 925 353 889 310 925 b 133 861 200 925 169 911 l 68 907 b 251 1000 115 976 174 1000 b 436 847 351 1000 436 944 b 322 710 436 782 386 729 l 322 707 b 454 563 407 693 454 635 b 250 393 454 454 361 393 b 47 513 156 393 83 429 l 119 554 b 256 468 142 499 178 468 b 371 564 310 468 371 517 b 221 671 371 607 344 671 l 181 671 "},"©":{"ha":1111,"x_min":0,"x_max":0,"o":"m 836 392 b 576 175 806 258 704 175 b 267 492 389 175 267 311 b 572 807 267 675 382 807 b 835 596 704 807 815 736 l 757 596 b 574 732 742 674 669 732 b 350 494 432 732 350 626 b 576 250 350 367 440 250 b 757 392 672 250 742 313 m 35 489 b 556 1008 35 786 272 1008 b 1076 494 839 1008 1076 786 b 556 -25 1076 197 839 -25 b 35 489 272 -25 35 197 m 118 489 b 556 50 118 242 313 50 b 993 494 799 50 993 242 b 556 933 993 743 799 933 b 118 489 313 933 118 743 "},"Á":{"ha":953,"x_min":0,"x_max":0,"o":"m 117 0 l 0 0 l 428 983 l 525 983 l 953 0 l 836 0 l 728 258 l 225 258 m 263 350 l 689 350 l 476 867 m 474 1026 l 392 1026 l 531 1226 l 657 1226 "},"Â":{"ha":953,"x_min":0,"x_max":0,"o":"m 117 0 l 0 0 l 428 983 l 525 983 l 953 0 l 836 0 l 728 258 l 225 258 m 263 350 l 689 350 l 476 867 m 683 1026 l 592 1026 l 476 1176 l 361 1026 l 269 1026 l 421 1226 l 532 1226 "},"Ä":{"ha":953,"x_min":0,"x_max":0,"o":"m 117 0 l 0 0 l 428 983 l 525 983 l 953 0 l 836 0 l 728 258 l 225 258 m 263 350 l 689 350 l 476 867 m 272 1142 b 343 1213 272 1178 301 1213 b 414 1142 385 1213 414 1178 b 343 1071 414 1106 385 1071 b 272 1142 301 1071 272 1106 m 539 1142 b 610 1213 539 1178 568 1213 b 681 1142 651 1213 681 1178 b 610 1071 681 1106 651 1071 b 539 1142 568 1071 539 1106 "},"À":{"ha":953,"x_min":0,"x_max":0,"o":"m 117 0 l 0 0 l 428 983 l 525 983 l 953 0 l 836 0 l 728 258 l 225 258 m 263 350 l 689 350 l 476 867 m 296 1226 l 422 1226 l 561 1026 l 479 1026 "},"Å":{"ha":953,"x_min":0,"x_max":0,"o":"m 117 0 l 0 0 l 428 983 l 525 983 l 953 0 l 836 0 l 728 258 l 225 258 m 263 350 l 689 350 l 476 867 m 610 1146 b 476 1014 610 1071 549 1014 b 343 1146 404 1014 343 1071 b 476 1278 343 1221 404 1278 b 610 1146 549 1278 610 1221 m 560 1146 b 476 1228 560 1192 522 1228 b 393 1146 431 1228 393 1192 b 476 1064 393 1100 431 1064 b 560 1146 522 1064 560 1100 "},"Ã":{"ha":953,"x_min":0,"x_max":0,"o":"m 117 0 l 0 0 l 428 983 l 525 983 l 953 0 l 836 0 l 728 258 l 225 258 m 263 350 l 689 350 l 476 867 m 251 1043 b 379 1188 264 1115 296 1188 b 481 1156 413 1188 447 1172 b 574 1124 514 1140 546 1124 b 642 1193 615 1124 633 1158 l 701 1193 b 574 1049 689 1121 657 1049 b 472 1081 540 1049 506 1065 b 379 1113 440 1097 408 1113 b 311 1043 338 1113 319 1078 "},"Ç":{"ha":978,"x_min":0,"x_max":0,"o":"m 943 156 b 579 -25 878 54 742 -25 b 550 -22 569 -25 560 -25 l 504 -83 l 507 -85 b 557 -75 522 -79 536 -75 b 664 -179 613 -75 664 -112 b 504 -301 664 -265 579 -301 b 369 -268 458 -301 411 -290 l 392 -218 b 494 -243 424 -235 460 -243 b 581 -181 535 -243 581 -226 b 513 -125 581 -164 569 -125 b 449 -140 486 -125 467 -132 l 424 -117 l 496 -18 b 67 492 244 19 67 222 b 579 1008 67 790 286 1008 b 919 853 701 1008 833 963 l 832 788 b 579 917 793 851 683 917 b 175 492 326 917 175 718 b 579 67 175 265 326 67 b 861 214 682 67 788 100 "},"É":{"ha":824,"x_min":0,"x_max":0,"o":"m 233 92 l 760 92 l 760 0 l 133 0 l 133 983 l 743 983 l 743 892 l 233 892 l 233 557 l 710 557 l 710 465 l 233 465 m 410 1026 l 328 1026 l 467 1226 l 593 1226 "},"Ê":{"ha":824,"x_min":0,"x_max":0,"o":"m 233 92 l 760 92 l 760 0 l 133 0 l 133 983 l 743 983 l 743 892 l 233 892 l 233 557 l 710 557 l 710 465 l 233 465 m 619 1026 l 528 1026 l 413 1176 l 297 1026 l 206 1026 l 357 1226 l 468 1226 "},"Ë":{"ha":824,"x_min":0,"x_max":0,"o":"m 233 92 l 760 92 l 760 0 l 133 0 l 133 983 l 743 983 l 743 892 l 233 892 l 233 557 l 710 557 l 710 465 l 233 465 m 208 1142 b 279 1213 208 1178 238 1213 b 350 1142 321 1213 350 1178 b 279 1071 350 1106 321 1071 b 208 1142 238 1071 208 1106 m 475 1142 b 546 1213 475 1178 504 1213 b 617 1142 588 1213 617 1178 b 546 1071 617 1106 588 1071 b 475 1142 504 1071 475 1106 "},"È":{"ha":824,"x_min":0,"x_max":0,"o":"m 233 92 l 760 92 l 760 0 l 133 0 l 133 983 l 743 983 l 743 892 l 233 892 l 233 557 l 710 557 l 710 465 l 233 465 m 232 1226 l 358 1226 l 497 1026 l 415 1026 "},"Í":{"ha":367,"x_min":0,"x_max":0,"o":"m 233 0 l 133 0 l 133 983 l 233 983 m 181 1026 l 99 1026 l 238 1226 l 364 1226 "},"Î":{"ha":367,"x_min":0,"x_max":0,"o":"m 233 0 l 133 0 l 133 983 l 233 983 m 390 1026 l 299 1026 l 183 1176 l 68 1026 l -24 1026 l 128 1226 l 239 1226 "},"Ï":{"ha":367,"x_min":0,"x_max":0,"o":"m 233 0 l 133 0 l 133 983 l 233 983 m -21 1142 b 50 1213 -21 1178 8 1213 b 121 1142 92 1213 121 1178 b 50 1071 121 1106 92 1071 b -21 1142 8 1071 -21 1106 m 246 1142 b 317 1213 246 1178 275 1213 b 388 1142 358 1213 388 1178 b 317 1071 388 1106 358 1071 b 246 1142 275 1071 246 1106 "},"Ì":{"ha":367,"x_min":0,"x_max":0,"o":"m 233 0 l 133 0 l 133 983 l 233 983 m 3 1226 l 129 1226 l 268 1026 l 186 1026 "},"Ñ":{"ha":1081,"x_min":0,"x_max":0,"o":"m 844 150 l 847 150 l 847 983 l 947 983 l 947 0 l 822 0 l 236 842 l 233 842 l 233 0 l 133 0 l 133 983 l 258 983 m 315 1043 b 443 1188 328 1115 360 1188 b 544 1156 476 1188 511 1172 b 638 1124 578 1140 610 1124 b 706 1193 679 1124 697 1158 l 765 1193 b 638 1049 753 1121 721 1049 b 536 1081 604 1049 569 1065 b 443 1113 504 1097 472 1113 b 375 1043 401 1113 383 1078 "},"Ó":{"ha":1158,"x_min":0,"x_max":0,"o":"m 1092 492 b 579 -25 1092 193 872 -25 b 67 492 286 -25 67 193 b 579 1008 67 790 286 1008 b 1092 492 872 1008 1092 790 m 983 492 b 579 917 983 718 832 917 b 175 492 326 917 175 718 b 579 67 175 265 326 67 b 983 492 832 67 983 265 m 576 1026 l 494 1026 l 633 1226 l 760 1226 "},"Ô":{"ha":1158,"x_min":0,"x_max":0,"o":"m 1092 492 b 579 -25 1092 193 872 -25 b 67 492 286 -25 67 193 b 579 1008 67 790 286 1008 b 1092 492 872 1008 1092 790 m 983 492 b 579 917 983 718 832 917 b 175 492 326 917 175 718 b 579 67 175 265 326 67 b 983 492 832 67 983 265 m 786 1026 l 694 1026 l 579 1176 l 464 1026 l 372 1026 l 524 1226 l 635 1226 "},"Ö":{"ha":1158,"x_min":0,"x_max":0,"o":"m 1092 492 b 579 -25 1092 193 872 -25 b 67 492 286 -25 67 193 b 579 1008 67 790 286 1008 b 1092 492 872 1008 1092 790 m 983 492 b 579 917 983 718 832 917 b 175 492 326 917 175 718 b 579 67 175 265 326 67 b 983 492 832 67 983 265 m 375 1142 b 446 1213 375 1178 404 1213 b 517 1142 488 1213 517 1178 b 446 1071 517 1106 488 1071 b 375 1142 404 1071 375 1106 m 642 1142 b 713 1213 642 1178 671 1213 b 783 1142 754 1213 783 1178 b 713 1071 783 1106 754 1071 b 642 1142 671 1071 642 1106 "},"Ò":{"ha":1158,"x_min":0,"x_max":0,"o":"m 1092 492 b 579 -25 1092 193 872 -25 b 67 492 286 -25 67 193 b 579 1008 67 790 286 1008 b 1092 492 872 1008 1092 790 m 983 492 b 579 917 983 718 832 917 b 175 492 326 917 175 718 b 579 67 175 265 326 67 b 983 492 832 67 983 265 m 399 1226 l 525 1226 l 664 1026 l 582 1026 "},"Õ":{"ha":1158,"x_min":0,"x_max":0,"o":"m 1092 492 b 579 -25 1092 193 872 -25 b 67 492 286 -25 67 193 b 579 1008 67 790 286 1008 b 1092 492 872 1008 1092 790 m 983 492 b 579 917 983 718 832 917 b 175 492 326 917 175 718 b 579 67 175 265 326 67 b 983 492 832 67 983 265 m 354 1043 b 482 1188 367 1115 399 1188 b 583 1156 515 1188 550 1172 b 676 1124 617 1140 649 1124 b 744 1193 718 1124 736 1158 l 804 1193 b 676 1049 792 1121 760 1049 b 575 1081 643 1049 608 1065 b 482 1113 543 1097 511 1113 b 414 1043 440 1113 422 1078 "},"Š":{"ha":772,"x_min":0,"x_max":0,"o":"m 599 821 b 408 917 556 885 492 917 b 199 739 306 917 199 863 b 703 260 199 474 703 614 b 379 -25 703 81 535 -25 b 69 121 260 -25 144 18 l 160 186 b 383 67 201 114 281 67 b 594 246 482 67 594 131 b 90 729 594 524 90 369 b 408 1008 90 919 249 1008 b 686 889 519 1008 608 978 m 442 1026 l 331 1026 l 179 1226 l 271 1226 l 386 1076 l 501 1226 l 593 1226 "},"Ú":{"ha":953,"x_min":0,"x_max":0,"o":"m 836 367 b 476 -25 836 203 771 -25 b 117 367 182 -25 117 203 l 117 983 l 217 983 l 217 378 b 476 67 217 94 401 67 b 736 378 551 67 736 94 l 736 983 l 836 983 m 474 1026 l 392 1026 l 531 1226 l 657 1226 "},"Û":{"ha":953,"x_min":0,"x_max":0,"o":"m 836 367 b 476 -25 836 203 771 -25 b 117 367 182 -25 117 203 l 117 983 l 217 983 l 217 378 b 476 67 217 94 401 67 b 736 378 551 67 736 94 l 736 983 l 836 983 m 683 1026 l 592 1026 l 476 1176 l 361 1026 l 269 1026 l 421 1226 l 532 1226 "},"Ü":{"ha":953,"x_min":0,"x_max":0,"o":"m 836 367 b 476 -25 836 203 771 -25 b 117 367 182 -25 117 203 l 117 983 l 217 983 l 217 378 b 476 67 217 94 401 67 b 736 378 551 67 736 94 l 736 983 l 836 983 m 272 1142 b 343 1213 272 1178 301 1213 b 414 1142 385 1213 414 1178 b 343 1071 414 1106 385 1071 b 272 1142 301 1071 272 1106 m 539 1142 b 610 1213 539 1178 568 1213 b 681 1142 651 1213 681 1178 b 610 1071 681 1106 651 1071 b 539 1142 568 1071 539 1106 "},"Ù":{"ha":953,"x_min":0,"x_max":0,"o":"m 836 367 b 476 -25 836 203 771 -25 b 117 367 182 -25 117 203 l 117 983 l 217 983 l 217 378 b 476 67 217 94 401 67 b 736 378 551 67 736 94 l 736 983 l 836 983 m 296 1226 l 422 1226 l 561 1026 l 479 1026 "},"Ý":{"ha":797,"x_min":0,"x_max":0,"o":"m 449 0 l 349 0 l 349 424 l -19 983 l 106 983 l 399 519 l 692 983 l 817 983 l 449 424 m 396 1026 l 314 1026 l 453 1226 l 579 1226 "},"Ÿ":{"ha":797,"x_min":0,"x_max":0,"o":"m 449 0 l 349 0 l 349 424 l -19 983 l 106 983 l 399 519 l 692 983 l 817 983 l 449 424 m 194 1142 b 265 1213 194 1178 224 1213 b 336 1142 307 1213 336 1178 b 265 1071 336 1106 307 1071 b 194 1142 224 1071 194 1106 m 461 1142 b 532 1213 461 1178 490 1213 b 603 1142 574 1213 603 1178 b 532 1071 603 1106 574 1071 b 461 1142 490 1071 461 1106 "},"Ž":{"ha":772,"x_min":0,"x_max":0,"o":"m 732 900 l 158 92 l 740 92 l 740 0 l 32 0 l 32 83 l 607 892 l 40 892 l 40 983 l 732 983 m 442 1026 l 331 1026 l 179 1226 l 271 1226 l 386 1076 l 501 1226 l 593 1226 "},"á":{"ha":721,"x_min":0,"x_max":0,"o":"m 517 399 l 517 415 b 350 583 517 528 463 583 b 151 507 274 583 207 557 l 96 572 b 371 667 156 633 249 667 b 608 436 499 667 608 594 l 608 146 b 619 0 608 96 614 35 l 531 0 b 522 106 525 32 522 71 l 519 106 b 290 -17 467 19 394 -17 b 67 174 175 -17 67 47 b 471 399 67 385 315 399 m 469 324 b 167 186 376 324 167 317 b 319 67 167 100 246 67 b 517 276 453 67 517 161 l 517 324 m 358 783 l 276 783 l 415 983 l 542 983 "},"â":{"ha":721,"x_min":0,"x_max":0,"o":"m 517 399 l 517 415 b 350 583 517 528 463 583 b 151 507 274 583 207 557 l 96 572 b 371 667 156 633 249 667 b 608 436 499 667 608 594 l 608 146 b 619 0 608 96 614 35 l 531 0 b 522 106 525 32 522 71 l 519 106 b 290 -17 467 19 394 -17 b 67 174 175 -17 67 47 b 471 399 67 385 315 399 m 469 324 b 167 186 376 324 167 317 b 319 67 167 100 246 67 b 517 276 453 67 517 161 l 517 324 m 568 783 l 476 783 l 361 933 l 246 783 l 154 783 l 306 983 l 417 983 "},"ä":{"ha":721,"x_min":0,"x_max":0,"o":"m 517 399 l 517 415 b 350 583 517 528 463 583 b 151 507 274 583 207 557 l 96 572 b 371 667 156 633 249 667 b 608 436 499 667 608 594 l 608 146 b 619 0 608 96 614 35 l 531 0 b 522 106 525 32 522 71 l 519 106 b 290 -17 467 19 394 -17 b 67 174 175 -17 67 47 b 471 399 67 385 315 399 m 469 324 b 167 186 376 324 167 317 b 319 67 167 100 246 67 b 517 276 453 67 517 161 l 517 324 m 157 899 b 228 969 157 935 186 969 b 299 899 269 969 299 935 b 228 828 299 863 269 828 b 157 899 186 828 157 863 m 424 899 b 494 969 424 935 453 969 b 565 899 536 969 565 935 b 494 828 565 863 536 828 b 424 899 453 828 424 863 "},"à":{"ha":721,"x_min":0,"x_max":0,"o":"m 517 399 l 517 415 b 350 583 517 528 463 583 b 151 507 274 583 207 557 l 96 572 b 371 667 156 633 249 667 b 608 436 499 667 608 594 l 608 146 b 619 0 608 96 614 35 l 531 0 b 522 106 525 32 522 71 l 519 106 b 290 -17 467 19 394 -17 b 67 174 175 -17 67 47 b 471 399 67 385 315 399 m 469 324 b 167 186 376 324 167 317 b 319 67 167 100 246 67 b 517 276 453 67 517 161 l 517 324 m 181 983 l 307 983 l 446 783 l 364 783 "},"å":{"ha":721,"x_min":0,"x_max":0,"o":"m 517 399 l 517 415 b 350 583 517 528 463 583 b 151 507 274 583 207 557 l 96 572 b 371 667 156 633 249 667 b 608 436 499 667 608 594 l 608 146 b 619 0 608 96 614 35 l 531 0 b 522 106 525 32 522 71 l 519 106 b 290 -17 467 19 394 -17 b 67 174 175 -17 67 47 b 471 399 67 385 315 399 m 469 324 b 167 186 376 324 167 317 b 319 67 167 100 246 67 b 517 276 453 67 517 161 l 517 324 m 494 903 b 361 771 494 828 433 771 b 228 903 289 771 228 828 b 361 1035 228 978 289 1035 b 494 903 433 1035 494 978 m 444 903 b 361 985 444 949 407 985 b 278 903 315 985 278 949 b 361 821 278 857 315 821 b 444 903 407 821 444 857 "},"ã":{"ha":721,"x_min":0,"x_max":0,"o":"m 517 399 l 517 415 b 350 583 517 528 463 583 b 151 507 274 583 207 557 l 96 572 b 371 667 156 633 249 667 b 608 436 499 667 608 594 l 608 146 b 619 0 608 96 614 35 l 531 0 b 522 106 525 32 522 71 l 519 106 b 290 -17 467 19 394 -17 b 67 174 175 -17 67 47 b 471 399 67 385 315 399 m 469 324 b 167 186 376 324 167 317 b 319 67 167 100 246 67 b 517 276 453 67 517 161 l 517 324 m 136 800 b 264 944 149 872 181 944 b 365 913 297 944 332 929 b 458 881 399 897 431 881 b 526 950 500 881 518 915 l 586 950 b 458 806 574 878 542 806 b 357 838 425 806 390 822 b 264 869 325 854 293 869 b 196 800 222 869 204 835 "},"ç":{"ha":669,"x_min":0,"x_max":0,"o":"m 574 497 b 411 583 543 544 483 583 b 167 325 260 586 167 474 b 411 67 167 176 260 64 b 574 153 483 67 543 106 l 649 96 b 411 -17 585 21 499 -15 b 401 -15 407 -17 403 -17 l 350 -83 l 353 -85 b 403 -75 368 -79 382 -75 b 510 -179 458 -75 510 -112 b 350 -301 510 -265 425 -301 b 215 -268 304 -301 257 -290 l 238 -218 b 340 -243 269 -235 306 -243 b 426 -181 381 -243 426 -226 b 358 -125 426 -164 415 -125 b 294 -140 332 -125 313 -132 l 269 -117 l 347 -11 b 67 325 172 13 67 150 b 411 667 67 521 199 669 b 649 554 499 665 585 629 "},"é":{"ha":772,"x_min":0,"x_max":0,"o":"m 164 300 b 403 67 175 169 274 67 b 611 179 500 67 575 121 l 682 121 b 403 -17 606 24 510 -17 b 67 325 210 -17 67 129 b 394 667 67 521 210 667 b 706 342 592 665 706 519 l 706 300 m 606 375 b 394 583 606 499 526 583 b 167 375 275 583 167 482 m 383 783 l 301 783 l 440 983 l 567 983 "},"ê":{"ha":772,"x_min":0,"x_max":0,"o":"m 164 300 b 403 67 175 169 274 67 b 611 179 500 67 575 121 l 682 121 b 403 -17 606 24 510 -17 b 67 325 210 -17 67 129 b 394 667 67 521 210 667 b 706 342 592 665 706 519 l 706 300 m 606 375 b 394 583 606 499 526 583 b 167 375 275 583 167 482 m 593 783 l 501 783 l 386 933 l 271 783 l 179 783 l 331 983 l 442 983 "},"ë":{"ha":772,"x_min":0,"x_max":0,"o":"m 164 300 b 403 67 175 169 274 67 b 611 179 500 67 575 121 l 682 121 b 403 -17 606 24 510 -17 b 67 325 210 -17 67 129 b 394 667 67 521 210 667 b 706 342 592 665 706 519 l 706 300 m 606 375 b 394 583 606 499 526 583 b 167 375 275 583 167 482 m 182 899 b 253 969 182 935 211 969 b 324 899 294 969 324 935 b 253 828 324 863 294 828 b 182 899 211 828 182 863 m 449 899 b 519 969 449 935 478 969 b 590 899 561 969 590 935 b 519 828 590 863 561 828 b 449 899 478 828 449 863 "},"è":{"ha":772,"x_min":0,"x_max":0,"o":"m 164 300 b 403 67 175 169 274 67 b 611 179 500 67 575 121 l 682 121 b 403 -17 606 24 510 -17 b 67 325 210 -17 67 129 b 394 667 67 521 210 667 b 706 342 592 665 706 519 l 706 300 m 606 375 b 394 583 606 499 526 583 b 167 375 275 583 167 482 m 206 983 l 332 983 l 471 783 l 389 783 "},"í":{"ha":333,"x_min":0,"x_max":0,"o":"m 213 0 l 121 0 l 121 650 l 213 650 m 164 783 l 82 783 l 221 983 l 347 983 "},"î":{"ha":333,"x_min":0,"x_max":0,"o":"m 213 0 l 121 0 l 121 650 l 213 650 m 374 783 l 282 783 l 167 933 l 51 783 l -40 783 l 111 983 l 222 983 "},"ï":{"ha":333,"x_min":0,"x_max":0,"o":"m 213 0 l 121 0 l 121 650 l 213 650 m -37 899 b 33 969 -37 935 -8 969 b 104 899 75 969 104 935 b 33 828 104 863 75 828 b -37 899 -8 828 -37 863 m 229 899 b 300 969 229 935 258 969 b 371 899 342 969 371 935 b 300 828 371 863 342 828 b 229 899 258 828 229 863 "},"ì":{"ha":333,"x_min":0,"x_max":0,"o":"m 213 0 l 121 0 l 121 650 l 213 650 m -14 983 l 113 983 l 251 783 l 169 783 "},"ñ":{"ha":772,"x_min":0,"x_max":0,"o":"m 188 650 b 192 546 192 615 192 581 l 194 546 b 413 667 235 617 326 667 b 657 413 578 667 657 574 l 657 0 l 565 0 l 565 360 b 389 583 565 504 525 583 b 192 333 369 583 192 571 l 192 0 l 100 0 l 100 507 b 93 650 100 542 96 603 m 161 800 b 289 944 174 872 206 944 b 390 913 322 944 357 929 b 483 881 424 897 456 881 b 551 950 525 881 543 915 l 611 950 b 483 806 599 878 567 806 b 382 838 450 806 415 822 b 289 869 350 854 318 869 b 221 800 247 869 229 835 "},"ó":{"ha":824,"x_min":0,"x_max":0,"o":"m 757 325 b 411 -17 757 129 614 -17 b 67 325 210 -17 67 129 b 411 667 67 521 210 667 b 757 325 614 667 757 521 m 657 325 b 411 583 657 471 563 583 b 167 325 261 583 167 471 b 411 67 167 179 261 67 b 657 325 563 67 657 179 m 410 783 l 328 783 l 467 983 l 593 983 "},"ô":{"ha":824,"x_min":0,"x_max":0,"o":"m 757 325 b 411 -17 757 129 614 -17 b 67 325 210 -17 67 129 b 411 667 67 521 210 667 b 757 325 614 667 757 521 m 657 325 b 411 583 657 471 563 583 b 167 325 261 583 167 471 b 411 67 167 179 261 67 b 657 325 563 67 657 179 m 619 783 l 528 783 l 413 933 l 297 783 l 206 783 l 357 983 l 468 983 "},"ö":{"ha":824,"x_min":0,"x_max":0,"o":"m 757 325 b 411 -17 757 129 614 -17 b 67 325 210 -17 67 129 b 411 667 67 521 210 667 b 757 325 614 667 757 521 m 657 325 b 411 583 657 471 563 583 b 167 325 261 583 167 471 b 411 67 167 179 261 67 b 657 325 563 67 657 179 m 208 899 b 279 969 208 935 238 969 b 350 899 321 969 350 935 b 279 828 350 863 321 828 b 208 899 238 828 208 863 m 475 899 b 546 969 475 935 504 969 b 617 899 588 969 617 935 b 546 828 617 863 588 828 b 475 899 504 828 475 863 "},"ò":{"ha":824,"x_min":0,"x_max":0,"o":"m 757 325 b 411 -17 757 129 614 -17 b 67 325 210 -17 67 129 b 411 667 67 521 210 667 b 757 325 614 667 757 521 m 657 325 b 411 583 657 471 563 583 b 167 325 261 583 167 471 b 411 67 167 179 261 67 b 657 325 563 67 657 179 m 232 983 l 358 983 l 497 783 l 415 783 "},"õ":{"ha":824,"x_min":0,"x_max":0,"o":"m 757 325 b 411 -17 757 129 614 -17 b 67 325 210 -17 67 129 b 411 667 67 521 210 667 b 757 325 614 667 757 521 m 657 325 b 411 583 657 471 563 583 b 167 325 261 583 167 471 b 411 67 167 179 261 67 b 657 325 563 67 657 179 m 188 800 b 315 944 200 872 232 944 b 417 913 349 944 383 929 b 510 881 450 897 482 881 b 578 950 551 881 569 915 l 638 950 b 510 806 625 878 593 806 b 408 838 476 806 442 822 b 315 869 376 854 344 869 b 247 800 274 869 256 835 "},"š":{"ha":592,"x_min":0,"x_max":0,"o":"m 444 496 b 304 583 417 549 371 583 b 169 486 240 583 169 556 b 297 383 169 425 213 403 l 390 361 b 549 183 481 340 549 275 b 296 -17 549 42 422 -17 b 46 110 197 -17 107 18 l 125 164 b 296 67 163 106 219 67 b 449 175 371 67 449 100 b 325 279 449 240 393 263 l 236 300 b 69 471 192 311 69 347 b 310 667 69 606 188 667 b 526 550 400 667 485 635 m 351 783 l 240 783 l 89 983 l 181 983 l 296 833 l 411 983 l 503 983 "},"ú":{"ha":772,"x_min":0,"x_max":0,"o":"m 569 0 b 565 104 565 35 565 69 l 563 104 b 344 -17 522 33 431 -17 b 100 238 179 -17 100 76 l 100 650 l 192 650 l 192 290 b 368 67 192 146 232 67 b 565 317 388 67 565 79 l 565 650 l 657 650 l 657 143 b 664 0 657 108 661 47 m 383 783 l 301 783 l 440 983 l 567 983 "},"û":{"ha":772,"x_min":0,"x_max":0,"o":"m 569 0 b 565 104 565 35 565 69 l 563 104 b 344 -17 522 33 431 -17 b 100 238 179 -17 100 76 l 100 650 l 192 650 l 192 290 b 368 67 192 146 232 67 b 565 317 388 67 565 79 l 565 650 l 657 650 l 657 143 b 664 0 657 108 661 47 m 593 783 l 501 783 l 386 933 l 271 783 l 179 783 l 331 983 l 442 983 "},"ü":{"ha":772,"x_min":0,"x_max":0,"o":"m 569 0 b 565 104 565 35 565 69 l 563 104 b 344 -17 522 33 431 -17 b 100 238 179 -17 100 76 l 100 650 l 192 650 l 192 290 b 368 67 192 146 232 67 b 565 317 388 67 565 79 l 565 650 l 657 650 l 657 143 b 664 0 657 108 661 47 m 182 899 b 253 969 182 935 211 969 b 324 899 294 969 324 935 b 253 828 324 863 294 828 b 182 899 211 828 182 863 m 449 899 b 519 969 449 935 478 969 b 590 899 561 969 590 935 b 519 828 590 863 561 828 b 449 899 478 828 449 863 "},"ù":{"ha":772,"x_min":0,"x_max":0,"o":"m 569 0 b 565 104 565 35 565 69 l 563 104 b 344 -17 522 33 431 -17 b 100 238 179 -17 100 76 l 100 650 l 192 650 l 192 290 b 368 67 192 146 232 67 b 565 317 388 67 565 79 l 565 650 l 657 650 l 657 143 b 664 0 657 108 661 47 m 206 983 l 332 983 l 471 783 l 389 783 "},"ý":{"ha":669,"x_min":0,"x_max":0,"o":"m 342 113 l 540 650 l 651 650 l 326 -169 b 122 -333 288 -269 235 -333 b 38 -324 94 -333 65 -332 l 47 -235 b 117 -250 68 -246 92 -250 b 242 -133 181 -250 214 -207 l 289 -8 l 22 650 l 138 650 m 332 783 l 250 783 l 389 983 l 515 983 "},"ÿ":{"ha":669,"x_min":0,"x_max":0,"o":"m 342 113 l 540 650 l 651 650 l 326 -169 b 122 -333 288 -269 235 -333 b 38 -324 94 -333 65 -332 l 47 -235 b 117 -250 68 -246 92 -250 b 242 -133 181 -250 214 -207 l 289 -8 l 22 650 l 138 650 m 131 899 b 201 969 131 935 160 969 b 272 899 243 969 272 935 b 201 828 272 863 243 828 b 131 899 160 828 131 863 m 397 899 b 468 969 397 935 426 969 b 539 899 510 969 539 935 b 468 828 539 863 510 828 b 397 899 426 828 397 863 "},"ž":{"ha":592,"x_min":0,"x_max":0,"o":"m 546 583 l 165 83 l 560 83 l 560 0 l 32 0 l 32 67 l 413 567 l 51 567 l 51 650 l 546 650 m 351 783 l 240 783 l 89 983 l 181 983 l 296 833 l 411 983 l 503 983 "},"∆":{"ha":897,"x_min":0,"x_max":0,"o":"m 44 67 l 399 1007 l 504 1007 l 854 67 l 854 0 l 44 0 m 754 76 l 544 633 b 450 896 519 710 468 831 l 444 896 b 360 657 431 843 385 732 l 138 76 "},"Ω":{"ha":1003,"x_min":0,"x_max":0,"o":"m 282 81 b 90 524 181 171 90 325 b 506 994 90 804 272 994 b 911 531 751 994 911 779 b 718 81 911 322 814 161 l 718 76 l 931 76 l 931 0 l 603 0 l 603 57 b 818 514 713 131 818 289 b 504 917 818 699 713 917 b 183 511 308 917 183 736 b 399 57 183 300 290 128 l 399 0 l 71 0 l 71 76 l 282 76 "},"μ":{"ha":772,"x_min":0,"x_max":0,"o":"m 100 650 l 192 650 l 192 290 b 368 67 192 131 235 67 b 565 317 479 67 565 157 l 565 650 l 657 650 l 657 143 b 664 0 657 96 661 47 l 565 0 l 565 106 l 563 106 b 344 -17 522 40 431 -17 b 192 24 281 -17 229 -3 l 192 -317 l 100 -317 "},"π":{"ha":786,"x_min":0,"x_max":0,"o":"m 633 647 l 633 206 b 654 0 633 88 644 36 l 565 0 b 542 196 553 22 542 79 l 542 647 l 279 647 b 175 0 271 461 228 132 l 85 0 b 188 647 139 150 181 454 b 29 629 97 647 58 640 l 14 692 b 210 728 49 713 104 728 l 758 728 l 749 647 "},"€":{"ha":772,"x_min":0,"x_max":0,"o":"m 719 944 b 506 1000 674 974 583 1000 b 140 660 326 1000 186 893 l 61 660 l 33 582 l 129 582 b 125 481 126 550 125 515 b 128 400 125 453 126 426 l 60 400 l 32 324 l 136 324 b 464 -17 165 124 265 -17 b 715 108 564 -17 664 24 l 650 156 b 476 67 618 106 550 67 b 240 324 343 67 268 163 l 540 324 l 565 400 l 232 400 b 229 476 231 426 229 450 b 233 582 229 514 231 549 l 615 582 l 639 660 l 246 660 b 504 913 279 828 365 913 b 690 858 582 913 647 890 "},"ℓ":{"ha":668,"x_min":0,"x_max":0,"o":"m 635 163 b 381 -10 575 50 489 -10 b 153 254 222 -10 158 114 l 153 274 b 72 207 128 253 99 229 l 42 261 b 153 358 82 296 119 325 l 153 747 b 361 1081 153 1003 261 1081 b 529 857 475 1081 529 982 b 240 338 529 679 414 508 l 240 293 b 397 64 242 128 315 64 b 589 201 488 64 554 138 m 240 432 b 464 854 365 568 464 710 b 360 1010 464 947 435 1010 b 240 756 306 1010 240 946 "},"℮":{"ha":1226,"x_min":0,"x_max":0,"o":"m 263 478 b 256 471 258 478 256 476 l 256 194 b 267 163 256 183 260 172 b 613 13 356 71 478 13 b 976 181 758 13 888 79 l 1058 181 b 611 -15 957 63 793 -15 b 47 492 300 -15 47 211 b 611 1000 47 772 300 1000 b 1176 492 924 1000 1176 772 l 1176 478 m 969 792 b 956 825 969 804 965 815 b 613 969 867 913 747 969 b 268 821 479 969 357 911 b 256 786 260 811 256 799 l 256 514 b 263 504 256 511 258 504 l 964 504 b 969 514 968 504 969 511 "},"∂":{"ha":754,"x_min":0,"x_max":0,"o":"m 108 1021 b 336 1099 153 1057 225 1099 b 682 568 513 1099 682 931 b 324 -11 682 242 561 -11 b 60 311 146 -11 60 150 b 356 668 60 531 201 668 b 589 531 486 668 567 574 l 590 531 b 592 594 592 549 592 576 b 326 1021 592 853 469 1021 b 142 953 240 1021 181 985 m 333 67 b 578 435 469 67 560 240 b 369 593 557 499 481 593 b 153 313 251 593 153 467 b 332 67 153 169 222 67 "},"∏":{"ha":967,"x_min":0,"x_max":0,"o":"m 775 894 l 775 -135 l 685 -135 l 685 894 l 281 894 l 281 -135 l 190 -135 l 190 894 l 36 894 l 36 979 l 929 979 l 929 894 "},"∑":{"ha":768,"x_min":0,"x_max":0,"o":"m 32 -135 l 32 -72 l 413 419 l 49 914 l 49 979 l 715 979 l 715 899 l 178 899 l 178 894 l 518 433 l 151 -43 l 151 -47 l 736 -47 l 736 -135 "},"∙":{"ha":386,"x_min":0,"x_max":0,"o":"m 268 436 b 193 361 268 397 238 361 b 118 436 149 361 118 397 b 193 511 118 475 149 511 b 268 436 238 511 268 475 "},"√":{"ha":792,"x_min":0,"x_max":0,"o":"m 481 -212 l 397 -212 l 171 444 l 68 406 l 47 464 l 231 535 l 413 0 b 436 -99 421 -32 431 -72 l 439 -99 b 456 0 442 -72 450 -33 l 719 1163 l 789 1163 "},"∞":{"ha":1083,"x_min":0,"x_max":0,"o":"m 1011 407 b 800 188 1011 274 910 188 b 543 356 710 188 642 246 b 278 188 469 272 392 188 b 71 401 165 188 71 282 b 288 619 71 526 163 619 b 547 451 393 619 474 538 b 810 619 622 533 693 619 b 1011 408 931 619 1011 532 m 289 249 b 508 400 379 249 450 339 b 278 561 446 476 379 561 b 136 400 188 561 136 485 b 286 249 136 317 196 249 m 801 561 b 579 406 706 561 629 456 b 804 249 674 304 729 249 b 946 403 894 249 946 328 b 803 561 946 503 885 561 "},"∫":{"ha":489,"x_min":0,"x_max":0,"o":"m 450 1110 b 399 1125 439 1118 417 1125 b 328 1092 376 1125 347 1115 b 279 839 292 1049 279 975 b 299 128 279 621 299 353 b 236 -156 299 -26 269 -108 b 106 -222 207 -200 157 -222 b 17 -200 71 -222 33 -210 l 35 -132 b 99 -149 47 -137 71 -149 b 164 -117 122 -149 147 -137 b 213 129 192 -81 213 -17 b 194 847 213 356 194 629 b 267 1142 194 999 214 1086 b 393 1194 301 1178 347 1194 b 467 1175 421 1194 453 1183 "},"≈":{"ha":786,"x_min":0,"x_max":0,"o":"m 719 564 b 542 433 683 492 629 433 b 378 493 485 433 446 456 b 246 540 335 517 293 540 b 107 436 181 540 142 490 l 65 468 b 256 600 107 550 175 600 b 413 542 324 600 374 563 b 546 493 461 515 494 493 b 681 599 604 493 640 529 m 719 331 b 542 200 683 258 629 200 b 378 260 485 200 446 222 b 246 307 333 283 293 307 b 107 201 179 307 142 257 l 65 235 b 256 367 107 317 175 367 b 413 310 324 367 374 329 b 547 260 460 283 494 260 b 681 364 604 260 640 296 "},"≠":{"ha":786,"x_min":0,"x_max":0,"o":"m 492 564 l 714 564 l 714 501 l 465 501 l 369 294 l 714 294 l 714 233 l 344 233 l 268 68 l 218 92 l 285 233 l 72 233 l 72 294 l 311 294 l 406 501 l 72 501 l 72 564 l 431 564 l 506 726 l 556 703 "},"≤":{"ha":786,"x_min":0,"x_max":0,"o":"m 81 450 l 81 515 l 710 831 l 710 756 l 149 485 l 149 482 l 711 210 l 711 135 m 72 13 l 72 76 l 714 76 l 714 13 "},"≥":{"ha":786,"x_min":0,"x_max":0,"o":"m 711 515 l 711 450 l 81 135 l 81 210 l 643 481 l 643 483 l 81 756 l 81 831 m 72 13 l 72 76 l 714 76 l 714 13 "},"◊":{"ha":793,"x_min":0,"x_max":0,"o":"m 432 -62 l 357 -62 l 78 489 l 360 1042 l 435 1042 l 714 489 m 422 889 b 396 961 413 913 401 943 l 393 961 b 365 889 386 940 378 915 l 163 492 l 369 86 b 393 15 382 58 390 32 l 399 15 b 424 85 403 33 414 67 l 628 486 "}," ":{"ha":386,"x_min":0,"x_max":0,"o":""},"­":{"ha":463,"x_min":0,"x_max":0,"o":"m 410 288 l 53 288 l 53 379 l 410 379 "},"ˉ":{"ha":333,"x_min":0,"x_max":0,"o":"m 354 833 l -21 833 l -21 908 l 354 908 "},"Ω":{"ha":1003,"x_min":0,"x_max":0,"o":"m 282 81 b 90 524 181 171 90 325 b 506 994 90 804 272 994 b 911 531 751 994 911 779 b 718 81 911 322 814 161 l 718 76 l 931 76 l 931 0 l 603 0 l 603 57 b 818 514 713 131 818 289 b 504 917 818 699 713 917 b 183 511 308 917 183 736 b 399 57 183 300 290 128 l 399 0 l 71 0 l 71 76 l 282 76 "},"∕":{"ha":233,"x_min":0,"x_max":0,"o":"m -232 0 l 394 1028 l 465 985 l -160 -44 "}}}
